<svg xmlns="http://www.w3.org/2000/svg" width="256" height="256" viewBox="0 0 256 256"><rect width="256" height="256" rx="10" fill="#0866d2"/><path d="M128.461,49.114A49.112,49.112,0,0,0,34.01,30.234H0v98.228H98.228V94.451A49.189,49.189,0,0,0,128.461,49.114ZM90.7,120.934H7.527V37.761H31.561A49.125,49.125,0,0,0,90.7,96.9Zm0-31.809a41.33,41.33,0,0,1-7.59,1.4V37.761H90.7Zm-15.117,1.4a41.329,41.329,0,0,1-7.59-1.4V37.761h7.59ZM60.467,86.162a41.717,41.717,0,0,1-7.59-5v-43.4h7.59ZM45.35,73.038a41.562,41.562,0,0,1-6.015-35.277H45.35ZM98.228,86.162V30.234H42.3A41.583,41.583,0,1,1,98.228,86.162Z" transform="translate(69.064 57.769)" fill="#fff"/></svg>