<svg xmlns="http://www.w3.org/2000/svg" width="241" height="87" viewBox="0 0 241 87"><g transform="translate(-40 -40)"><g transform="translate(40 40)" fill="none" stroke="#fff" stroke-width="4"><rect width="241" height="87" stroke="none"/><rect x="2" y="2" width="237" height="83" fill="none"/></g><g transform="translate(77 62.698)"><path d="M7.828,0,.95-27.74H6.84l3.838,17.518q.19.912.475,2.318T11.59-5.51q.152-.988.38-2.394t.418-2.356l3.724-17.48H21.85L15.048,0ZM35.34.38A9.4,9.4,0,0,1,28.671-1.9,8.1,8.1,0,0,1,26.22-8.132V-27.74h5.7V-8.17a3.719,3.719,0,0,0,.893,2.679,3.337,3.337,0,0,0,2.527.931,3.35,3.35,0,0,0,2.508-.931A3.672,3.672,0,0,0,38.76-8.17V-27.74h5.7V-8.132a8.109,8.109,0,0,1-2.451,6.213A9.357,9.357,0,0,1,35.34.38ZM50.92,0V-27.74h17.1v4.94H56.506v6.232H66.69v4.712H56.506V-4.94H68.02V0Z" transform="translate(47.877 36.337)" fill="#fff"/><path d="M6.056-5.738q-.19-1-.394-1.93T5.243-9.395a5.465,5.465,0,0,0-.355-1.047.906.906,0,0,0-.3-.343.766.766,0,0,0-.4-.1.972.972,0,0,0-.482.121,1.835,1.835,0,0,0-.47.419,10.256,10.256,0,0,0-.673.933l-.825-.546a8.037,8.037,0,0,1,1.536-1.8,2.678,2.678,0,0,1,1.739-.6,2.43,2.43,0,0,1,.692.089,1.523,1.523,0,0,1,.527.273,1.813,1.813,0,0,1,.406.476,3.909,3.909,0,0,1,.343.793,10.607,10.607,0,0,1,.311,1.244q.146.743.26,1.542h.127Q8.9-9.648,9.528-10.442a9.9,9.9,0,0,1,1.06-1.181,2.855,2.855,0,0,1,.832-.546,2.929,2.929,0,0,1,1.06-.159,2.662,2.662,0,0,1,.978.152l-.508,2.3h-.889q-.076-.533-.444-.533a.84.84,0,0,0-.241.038,1.185,1.185,0,0,0-.311.165,4.175,4.175,0,0,0-.54.5q-.355.368-.8.9T8.811-7.693L7.947-6.614q.229,1.219.432,2.107t.362,1.479q.159.59.279.933a1.744,1.744,0,0,0,.26.514.86.86,0,0,0,.286.241.771.771,0,0,0,.336.07,1.041,1.041,0,0,0,.667-.267A5.947,5.947,0,0,0,11.5-2.742l.825.546a7.821,7.821,0,0,1-1.606,1.86A2.76,2.76,0,0,1,9.014.2a2,2,0,0,1-.927-.2,1.756,1.756,0,0,1-.66-.628,4.473,4.473,0,0,1-.5-1.346,20.333,20.333,0,0,1-.482-2.488H6.322q-1.346,1.892-2,2.717A11.286,11.286,0,0,1,3.244-.521a2.73,2.73,0,0,1-.825.552A2.929,2.929,0,0,1,1.358.19,2.662,2.662,0,0,1,.381.038l.508-2.3h.889q.076.533.444.533a.861.861,0,0,0,.375-.1,2.554,2.554,0,0,0,.565-.457q.368-.362,1.016-1.136T6.056-5.738ZM20.046.025q-.368-2.222-1-5.357-.673-3.352-.889-4.151a2.821,2.821,0,0,0-.559-1.231.628.628,0,0,0-.444-.165,1.1,1.1,0,0,0-.762.33,6.218,6.218,0,0,0-.876,1.143l-.825-.546A7.116,7.116,0,0,1,16.326-11.8a2.875,2.875,0,0,1,1.7-.54,2.511,2.511,0,0,1,.889.14,1.677,1.677,0,0,1,.508.336,2.088,2.088,0,0,1,.451.654,6.061,6.061,0,0,1,.343.939q.146.521.324,1.5.3,1.638.59,3.447t.489,3.358a29.2,29.2,0,0,0,2.088-3.479A18.567,18.567,0,0,0,24.94-8.4a7.523,7.523,0,0,0,.375-2.044,1.036,1.036,0,0,0-.254-.812,1.492,1.492,0,0,0-.863-.254l.127-.622h3.339l.343.635a41.409,41.409,0,0,1-2.615,5.649A58.821,58.821,0,0,1,21.671.013a28.888,28.888,0,0,1-3.339,4.024,6.468,6.468,0,0,1-1.79,1.219,3.832,3.832,0,0,1-1.46.279,4.946,4.946,0,0,1-.616-.044,2.3,2.3,0,0,1-.54-.121l.546-2.463h1q0,.813.559.813a2.732,2.732,0,0,0,1.714-.92A19.294,19.294,0,0,0,20.046.025ZM38.911-3.567,38.137,0H28.945L28.7-.622l6.944-8q1.473-1.688,2.158-2.4l-.076-.089H34.76a3.769,3.769,0,0,0-.965.089,1.982,1.982,0,0,0-.609.311,3.568,3.568,0,0,0-.654.66,8.356,8.356,0,0,0-.781,1.25h-1.13l.749-3.339H40.4l.241.635L34.582-4.545q-1.765,2.019-3.06,3.428l.076.089h2.869a6.257,6.257,0,0,0,1.168-.083,1.747,1.747,0,0,0,.711-.311,3.025,3.025,0,0,0,.628-.692,11.539,11.539,0,0,0,.806-1.454Z" transform="translate(125.756 20.46)" fill="#fff"/><path d="M38.589,14.753A14.753,14.753,0,0,0,10.216,9.082H0V38.589H29.507V28.372A14.776,14.776,0,0,0,38.589,14.753ZM27.246,36.328H2.261V11.343h7.22A14.757,14.757,0,0,0,27.246,29.108Zm0-9.555a12.415,12.415,0,0,1-2.28.421V11.343h2.28Zm-4.541.421a12.415,12.415,0,0,1-2.28-.421V11.343H22.7Zm-4.541-1.312a12.531,12.531,0,0,1-2.28-1.5V11.343h2.28ZM13.623,21.94a12.485,12.485,0,0,1-1.807-10.6h1.807Zm15.884,3.942V9.082h-16.8a12.491,12.491,0,1,1,16.8,16.8Z" fill="#fff"/></g></g></svg>